<svg version="1.1" id="Layer_1" xmlns="http://www.w3.org/2000/svg" x="0" y="0" viewBox="0 0 1080 1080" xml:space="preserve"><path class="st0" d="M539.99 322.81c119.76-.03 217.22 97.38 217.26 217.15 0 6.34-.35 12.61-.89 18.85l26.49-26.51c-4.1-130.52-111.44-235.43-242.87-235.39-74.47.02-142.84 33.59-188.15 89.19l18.46 18.45c40.99-51.49 102.88-81.72 169.7-81.74z"/><path class="st0" d="M702.11 613.09l11.38-11.39-133.46-133.4-72.93 72.98 7.94 7.94 3.45 3.44 61.55-61.58z"/><path class="st0" d="M539.93 93.72c246.03-.07 446.25 200.08 446.32 446.18 0 7.18-.17 14.02-.48 20.66l23.98 23.97c1.38-14.83 2.29-29.73 2.29-44.63-.07-260.31-211.87-472.04-472.13-471.97-260.31.06-472.03 211.9-471.96 472.22.01 34.44 3.95 68.58 11.31 101.94l21.86-21.87c-4.8-26.21-7.36-53.04-7.37-80.08-.07-246.09 200.09-446.35 446.18-446.42z"/><path class="st0" d="M556.04 435.73c-5.25-.8-10.57-1.31-16.02-1.31-37.11.01-70.63 19.32-89.66 50.16l18.69 18.68c11.97-23.23 34.97-39.48 61.96-42.49l25.03-25.04z"/><path class="st0" d="M540.02 414.41c11.35 0 22.39 1.55 32.93 4.4l7.07-7.07 15.78 15.77c24.39 12.06 44.44 31.85 56.76 56.72l37.84 37.82c-8.92-75.07-72.96-133.46-150.38-133.44-48.9.01-94.5 23.72-122.77 62.86L435.78 470c23.02-34.35 61.72-55.57 104.24-55.59zM580.05 547.65l-33.27 33.29 11.39 11.38 21.89-21.9 82.4 82.35 11.37-11.39z"/><path class="st0" d="M539.98 276.91c136.08-.04 248.37 103.85 261.73 236.53l22.87-22.88c-23.6-137.69-143.04-239.48-284.61-239.45-130.15.03-241.47 86.19-276.91 207.08l48.69-48.71c46.35-81.41 132.63-132.54 228.23-132.57z"/><path class="st0" d="M711.45 539.97c0 1.03-.08 2.01-.1 3.03l23.86 23.85c1.21-8.85 2.03-17.79 2.03-26.89-.02-108.73-88.51-197.18-197.24-197.15-61.43.02-118.31 28.12-155.49 75.94l18.43 18.42c32.12-42.75 82.8-68.54 137.07-68.55 94.5-.03 171.42 76.84 171.44 171.35z"/><path class="st0" d="M539.95 185.31c167.01-.05 309.06 114.45 345.64 275.12l31.75 31.74c-23.71-186.9-185-332.69-377.4-332.64-209.81.06-380.46 170.8-380.4 380.6 0 6.94.27 13.95.66 20.97l25.25-25.26c2.26-193.62 160.36-350.47 354.5-350.53z"/><path class="st0" d="M539.97 231.11c146.66-.04 271.08 102.14 301.64 242.41l21.37-21.38C824.03 307.27 693.1 205.26 539.97 205.3c-176.09.05-320.78 136.8-333.64 309.65l29.8-29.81c26.06-146.12 153.22-253.99 303.84-254.03z"/><path class="st0" d="M539.94 139.52c210.92-.06 386.33 166.42 399.62 374.84l26.67 26.66c0-.38.02-.73.02-1.12-.06-235.06-191.31-426.25-426.32-426.18-235.06.06-426.25 191.36-426.18 426.41.01 21.12 1.65 42.09 4.72 62.72l23.28-23.29c-1.3-13.22-2.2-26.43-2.2-39.44-.06-220.83 179.55-400.54 400.39-400.6z"/><path class="st0" d="M539.86 0C242.1.08-.08 242.39 0 540.15.08 837.9 242.39 1080.08 540.15 1080c297.76-.08 539.93-242.39 539.85-540.15C1079.92 242.09 837.61-.08 539.86 0zM343.53 592.98l-222.67 222.8c-7.55-11.44-14.71-23.17-21.32-35.24l243.98-244.11 441.67 441.42c-12.2 6.86-24.73 13.2-37.53 19.05L343.53 592.98zm388.31 410.87c-13.53 5.62-27.34 10.71-41.44 15.14L343.55 672.32 154.66 861.31c-8.62-10.32-16.76-21.04-24.54-32.03l213.41-213.52 388.31 388.09zM343.5 513.64L91.75 765.54c-6.41-12.69-12.29-25.68-17.62-38.96l269.36-269.51 490.06 489.79c-11 7.96-22.27 15.58-33.92 22.65L343.5 513.64zM165.24 873.51L343.55 695.1l329.18 328.99c-15.14 4.16-30.57 7.6-46.25 10.34L343.57 751.66 193.04 902.28c-9.63-9.23-18.93-18.8-27.8-28.77zm132.18 105.83l46.19-46.22 99.51 99.45c-52.81-10.95-112.06-30.06-145.7-53.23zm46.19-69l-60.64 60.69c-11.71-7.01-23.06-14.54-34.12-22.45l94.75-94.8 188.17 188.06c-20.76-.34-41.22-1.92-61.31-4.72L343.61 910.34zm-.02-79.34L235.73 938.93c-10.65-8.15-20.99-16.67-30.95-25.62l138.79-138.87 263.18 263.03c-17.2 2.3-34.67 3.71-52.38 4.21L343.59 831zm536.9 77.46l-3.07 2.93c-9.9 9.01-20.25 17.53-30.84 25.73l-1.82-1.82-105.92-105.86-7.51-7.5-20.86-20.85-18.82-18.81-11.39-11.38-20.76-20.75-7.53-7.53-12.78-12.78-126.34-126.26-22.65-22.63-39.68-39.66L343.48 434.3 67.78 710.16c-5.1-14.1-9.59-28.49-13.43-43.15l8.11-8.11c-9.62-38.7-14.49-78.56-14.5-118.75C47.88 268.8 268.57 47.99 539.92 47.92c271.29-.07 492.06 220.62 492.13 491.97.01 21.02-1.37 42.11-4.01 62.91l8.75 8.74c-2.3 16.06-5.38 31.86-9.17 47.39L870.15 501.54 770.06 601.68l-39.66 39.68-39.66 39.68-21.89 21.9 11.39 11.38 189.91-190.01 152.68 152.59c-4.09 14.42-8.79 28.58-14.11 42.45L870.17 580.88 708.54 742.61l11.39 11.38 150.25-150.33 132.08 132c-5.55 13.06-11.71 25.79-18.31 38.26L870.2 660.22 748.22 782.27l3.19 3.19 8.19 8.19L870.2 683l105.64 105.58c-6.81 11.9-14.03 23.53-21.77 34.8l-83.86-83.81-82.32 82.37 11.39 11.38 70.93-70.96 74.39 74.34c-7.96 10.82-16.38 21.27-25.15 31.41l-49.22-49.19-42.65 42.68 11.38 11.38 31.28-31.29 38.51 38.49c-9.04 9.79-18.47 19.22-28.26 28.28z"/></svg>