<svg version="1.1" id="Layer_1" xmlns="http://www.w3.org/2000/svg" x="0" y="0" viewBox="0 0 1080 375.02" xml:space="preserve"><path class="st0" d="M111.03 347.74v-23.92H162v-23.88h-50.97v-21.92h53.95V254.1H85.15v117.52h82.82v-23.88h-56.94zM307.41 254.1v81.67h-.33L257.1 254.1h-35.18v117.52h25.9v-83.65h.33l51.28 83.65h33.87V254.1h-25.89zM450.84 301.9v23.92h21.07v19.1c-2.43 1.32-5.71 2.61-9.78 3.89-4.11 1.28-8.97 1.91-14.62 1.91-5.54 0-10.52-.94-15.03-2.82-4.47-1.89-8.32-4.52-11.54-7.89-3.21-3.39-5.65-7.36-7.37-11.95-1.72-4.59-2.58-9.65-2.58-15.19 0-5.41.85-10.47 2.58-15.12 1.72-4.63 4.17-8.65 7.37-12.02 3.22-3.37 7.08-6 11.54-7.87 4.5-1.89 9.49-2.82 15.03-2.82 6.63 0 12.17.93 16.6 2.82 4.43 1.87 8.41 4.63 11.95 8.3l18.27-19.92c-5.98-5.54-12.93-9.45-20.84-11.71-7.91-2.28-16.56-3.41-25.98-3.41-9.19 0-17.64 1.45-25.4 4.32-7.74 2.89-14.43 7-20.08 12.38-5.63 5.35-10.02 11.86-13.19 19.49-3.17 7.63-4.72 16.16-4.72 25.57s1.56 17.93 4.72 25.57c3.17 7.63 7.56 14.14 13.19 19.49 5.65 5.39 12.34 9.5 20.08 12.38 7.76 2.87 16.21 4.32 25.4 4.32 8.63 0 17.1-.89 25.4-2.65 8.3-1.78 16.27-4.65 23.9-8.65V301.9h-45.97zM579.63 347.74V254.1h-25.88v117.52h73.87v-23.88h-47.99zM829.45 319.52c-2.65-4.11-6-7.37-10.04-9.8-4.04-2.43-8.37-4.34-13.02-5.63-4.67-1.33-9-2.67-13.04-4-4.04-1.32-7.37-2.93-10.02-4.8-2.67-1.89-4-4.59-4-8.15 0-2.2.56-4.08 1.67-5.63 1.11-1.56 2.54-2.8 4.32-3.72 1.76-.94 3.65-1.65 5.65-2.08 1.98-.46 3.91-.67 5.8-.67 3.21 0 6.61.63 10.21 1.89 3.59 1.28 6.45 3.24 8.54 5.91l17.77-19.44c-4.98-4.41-10.56-7.58-16.77-9.47-6.21-1.87-12.62-2.82-19.25-2.82-5.76 0-11.34.82-16.77 2.41-5.43 1.61-10.21 4.02-14.36 7.23-4.15 3.21-7.47 7.19-9.97 11.95-2.48 4.76-3.72 10.28-3.72 16.6 0 6.52 1.35 11.78 4.06 15.77 2.71 3.98 6.11 7.19 10.23 9.63 4.08 2.43 8.5 4.37 13.27 5.8 4.76 1.45 9.17 2.89 13.28 4.34 4.09 1.43 7.5 3.17 10.21 5.21 2.71 2.06 4.08 4.85 4.08 8.39 0 2.09-.54 3.93-1.59 5.47-1.04 1.56-2.43 2.83-4.15 3.84-1.7.98-3.65 1.72-5.8 2.24-2.17.5-4.3.74-6.39.74-4.32 0-8.5-.98-12.52-2.91-4.06-1.95-7.39-4.69-10.06-8.21l-18.42 20.23c5.65 5.21 11.73 8.97 18.25 11.3 6.54 2.32 13.62 3.48 21.25 3.48 6.08 0 11.88-.78 17.36-2.33 5.47-1.54 10.28-3.91 14.43-7.13 4.15-3.21 7.45-7.24 9.88-12.12 2.43-4.87 3.65-10.56 3.65-17.08-.03-6.88-1.37-12.34-4.02-16.44zM962.07 254.1v43.84h-50.28V254.1h-25.9v117.52h25.9v-50.78h50.28v50.78h25.9V254.1h-25.9zM700.63 270.9v100.67h-25.9V270.9c3.76 2.51 8.21 3.9 12.95 3.9 4.73 0 9.19-1.39 12.95-3.9z"/><circle class="st0" cx="687.7" cy="251.12" r="13.54"/><g><path class="st0" d="M43.7 168.39v-38.93h83V90.52h-83V54.84h87.88V15.91H1.52v191.41h134.92v-38.93H43.7zM275.15 126.49c13.51-2.52 23.77-8.52 30.81-17.97 7.04-9.47 10.54-20.95 10.54-34.48 0-11.17-1.95-20.49-5.82-27.98-3.87-7.49-9.1-13.43-15.67-17.86-6.58-4.39-14.25-7.56-22.99-9.45-8.73-1.89-17.97-2.83-27.7-2.83h-74.09v191.41h42.19V130.8h20.81l40.02 76.52h50.56l-48.66-80.83zm-5.82-40.56c-2.28 2.89-5.11 5-8.52 6.36-3.43 1.35-7.26 2.17-11.49 2.43-4.24.28-8.24.41-12.02.41h-24.88V51.6h27.57c3.78 0 7.67.26 11.64.82 3.96.54 7.49 1.57 10.54 3.11 3.06 1.54 5.58 3.72 7.58 6.61 1.96 2.89 2.96 6.76 2.96 11.64-.01 5.22-1.14 9.28-3.38 12.15zM472.5 152.72c-4.34 6.48-9.84 11.54-16.49 15.14-6.69 3.59-14.34 5.41-22.99 5.41-7.58 0-14.64-1.54-21.23-4.61-6.56-3.06-12.28-7.32-17.16-12.84-4.87-5.48-8.69-11.97-11.49-19.45s-4.21-15.73-4.21-24.73c0-8.84 1.41-17.05 4.21-24.6 2.8-7.58 6.67-14.12 11.62-19.6 4.97-5.5 10.82-9.78 17.58-12.84 6.76-3.08 14.1-4.61 22.03-4.61 7.93 0 14.91 1.37 20.95 4.06 6.04 2.71 11.12 6.6 15.29 11.64l32.44-26.49c-4.15-5.24-8.84-9.63-14.06-13.25-5.22-3.61-10.69-6.48-16.36-8.65s-11.45-3.74-17.3-4.74c-5.85-.98-11.49-1.48-16.9-1.48-14.95 0-28.75 2.35-41.37 7.04-12.62 4.69-23.51 11.39-32.7 20.12C355.17 47 348 57.58 342.85 70.01c-5.11 12.45-7.69 26.33-7.69 41.65s2.58 29.18 7.69 41.63c5.15 12.43 12.32 23.03 21.51 31.77 9.19 8.73 20.08 15.45 32.7 20.12 12.62 4.69 26.42 7.04 41.37 7.04 13.15 0 25.96-2.71 38.39-8.12 12.43-5.41 22.71-13.78 30.83-25.14l-35.15-26.24zM721.77 15.91l-43 71.65-40.54-71.65h-52.45l71.91 109.78v81.63h42.17v-81.63l71.92-109.78h-50.01zM829.64 168.39v-38.93h83V90.52h-83V54.84h87.86V15.91H787.45v191.41h134.92v-38.93h-92.73zM1073.52 122.45c-4.34-6.69-9.8-12.01-16.38-15.97-6.58-3.96-13.64-7.02-21.21-9.19-7.58-2.17-14.64-4.32-21.23-6.48-6.56-2.17-12.02-4.78-16.34-7.84-4.34-3.06-6.5-7.49-6.5-13.25 0-3.61.91-6.67 2.72-9.19 1.8-2.52 4.13-4.56 7.02-6.1 2.87-1.52 5.93-2.65 9.19-3.37 3.24-.72 6.39-1.09 9.47-1.09 5.22 0 10.76 1.06 16.62 3.13 5.85 2.06 10.51 5.26 13.91 9.58l28.94-31.63c-8.11-7.21-17.21-12.34-27.31-15.41-10.1-3.06-20.55-4.59-31.37-4.59-9.36 0-18.47 1.32-27.29 3.93-8.84 2.61-16.64 6.52-23.4 11.76-6.76 5.22-12.17 11.71-16.21 19.45-4.06 7.74-6.08 16.77-6.08 27.03 0 10.65 2.2 19.21 6.61 25.7s9.95 11.73 16.64 15.67c6.65 3.96 13.88 7.13 21.62 9.47 7.74 2.33 14.95 4.69 21.64 7.02 6.65 2.35 12.19 5.19 16.62 8.52 4.41 3.33 6.61 7.89 6.61 13.65 0 3.43-.85 6.39-2.56 8.91-1.72 2.52-3.96 4.61-6.76 6.23-2.8 1.63-5.97 2.83-9.47 3.65-3.52.82-6.98 1.22-10.41 1.22-7.02 0-13.84-1.57-20.42-4.72-6.58-3.17-12.02-7.61-16.36-13.4l-30 32.98c9.19 8.49 19.1 14.6 29.74 18.38 10.63 3.8 22.18 5.69 34.61 5.69 9.91 0 19.32-1.26 28.25-3.78 8.91-2.54 16.75-6.39 23.51-11.64 6.76-5.22 12.12-11.8 16.08-19.73 3.96-7.93 5.97-17.21 5.97-27.85.01-11.16-2.16-20.09-6.47-26.74zM571.04 51.56v155.77h-40.07V51.56c5.81 3.88 12.71 6.03 20.03 6.03 7.33 0 14.22-2.15 20.04-6.03z"/><circle class="st0" cx="551.03" cy="20.95" r="20.95"/></g></svg>